<svg xmlns="http://www.w3.org/2000/svg" width="104.783" height="52.4" viewBox="0 0 104.783 52.4">
  <path id="Icon_awesome-gamepad" data-name="Icon awesome-gamepad" d="M78.6,6.75H26.2A26.2,26.2,0,1,0,44.9,51.29H59.883A26.2,26.2,0,1,0,78.6,6.75ZM41.92,36.225a1.971,1.971,0,0,1-1.965,1.965H31.44V46.7a1.971,1.971,0,0,1-1.965,1.965h-6.55A1.971,1.971,0,0,1,20.96,46.7V38.19H12.445a1.971,1.971,0,0,1-1.965-1.965v-6.55a1.971,1.971,0,0,1,1.965-1.965H20.96V19.195a1.971,1.971,0,0,1,1.965-1.965h6.55a1.971,1.971,0,0,1,1.965,1.965V27.71h8.515a1.971,1.971,0,0,1,1.965,1.965ZM72.05,47.36a7.86,7.86,0,1,1,7.86-7.86A7.862,7.862,0,0,1,72.05,47.36Zm13.1-13.1a7.86,7.86,0,1,1,7.86-7.86A7.862,7.862,0,0,1,85.15,34.26Z" transform="translate(0 -6.75)" fill="#6e00ff"/>
</svg>
