<svg id="footer-blocks" xmlns="http://www.w3.org/2000/svg" width="609" height="609" viewBox="0 0 609 609">
  <g id="Rectangle_4" data-name="Rectangle 4" transform="translate(152 152)" fill="#fff" stroke="#707070" stroke-width="1">
    <rect width="153" height="152" rx="25" stroke="none"/>
    <rect x="0.5" y="0.5" width="152" height="151" rx="24.5" fill="none"/>
  </g>
  <g id="Rectangle_11" data-name="Rectangle 11" transform="translate(152 304)" fill="#07deff" stroke="#707070" stroke-width="1">
    <rect width="153" height="153" rx="76.5" stroke="none"/>
    <rect x="0.5" y="0.5" width="152" height="152" rx="76" fill="none"/>
  </g>
  <g id="Rectangle_8" data-name="Rectangle 8" transform="translate(152 457)" fill="#fff" stroke="#707070" stroke-width="1">
    <rect width="153" height="152" rx="25" stroke="none"/>
    <rect x="0.5" y="0.5" width="152" height="151" rx="24.5" fill="none"/>
  </g>
  <g id="Rectangle_9" data-name="Rectangle 9" transform="translate(0 304)" fill="#fff" stroke="#707070" stroke-width="1" opacity="0.25">
    <rect width="152" height="153" rx="25" stroke="none"/>
    <rect x="0.5" y="0.5" width="151" height="152" rx="24.5" fill="none"/>
  </g>
  <g id="Rectangle_5" data-name="Rectangle 5" transform="translate(305)" fill="#6e00ff" stroke="#707070" stroke-width="1">
    <rect width="152" height="152" rx="25" stroke="none"/>
    <rect x="0.5" y="0.5" width="151" height="151" rx="24.5" fill="none"/>
  </g>
  <g id="Rectangle_6" data-name="Rectangle 6" transform="translate(305 152)" fill="#ff64cb" stroke="#707070" stroke-width="1">
    <rect width="152" height="152" rx="76" stroke="none"/>
    <rect x="0.5" y="0.5" width="151" height="151" rx="75.5" fill="none"/>
  </g>
  <g id="Path_2" data-name="Path 2" transform="translate(457 152)" fill="#fff" opacity="0.25">
    <path d="M 127 151.5 L 25 151.5 C 21.69230079650879 151.5 18.48380088806152 150.852294921875 15.4636402130127 149.5748748779297 C 12.54625988006592 148.3409271240234 9.926079750061035 146.5743255615234 7.675879955291748 144.3241271972656 C 5.425680160522461 142.0739135742188 3.659080028533936 139.4537353515625 2.425120115280151 136.5363616943359 C 1.147699952125549 133.5162048339844 0.5 130.3076934814453 0.5 127 L 0.5 25 C 0.5 21.69230079650879 1.147699952125549 18.48380088806152 2.425120115280151 15.4636402130127 C 3.659080028533936 12.54625988006592 5.425680160522461 9.926079750061035 7.675879955291748 7.675879955291748 C 9.926079750061035 5.425680160522461 12.54625988006592 3.659080028533936 15.4636402130127 2.425120115280151 C 18.48380088806152 1.147699952125549 21.69230079650879 0.5 25 0.5 L 127 0.5 C 130.3076934814453 0.5 133.5162048339844 1.147699952125549 136.5363616943359 2.425120115280151 C 139.4537353515625 3.659080028533936 142.0739135742188 5.425680160522461 144.3241271972656 7.675879955291748 C 146.5743255615234 9.926079750061035 148.3409271240234 12.54625988006592 149.5748748779297 15.4636402130127 C 150.852294921875 18.48380088806152 151.5 21.69230079650879 151.5 25 L 151.5 127 C 151.5 130.3076934814453 150.852294921875 133.5162048339844 149.5748748779297 136.5363616943359 C 148.3409271240234 139.4537353515625 146.5743255615234 142.0739135742188 144.3241271972656 144.3241271972656 C 142.0739135742188 146.5743255615234 139.4537353515625 148.3409271240234 136.5363616943359 149.5748748779297 C 133.5162048339844 150.852294921875 130.3076934814453 151.5 127 151.5 Z" stroke="none"/>
    <path d="M 25 1 C 21.75958251953125 1 18.61662292480469 1.634414672851563 15.65841674804688 2.8856201171875 C 12.80064392089844 4.0943603515625 10.23388671875 5.824996948242188 8.029434204101563 8.029434204101563 C 5.824996948242188 10.23388671875 4.0943603515625 12.80064392089844 2.8856201171875 15.65841674804688 C 1.634414672851563 18.61662292480469 1 21.75958251953125 1 25 L 1 127 C 1 130.2404174804688 1.634414672851563 133.3833770751953 2.8856201171875 136.3415832519531 C 4.0943603515625 139.1993560791016 5.824996948242188 141.76611328125 8.029434204101563 143.9705657958984 C 10.23388671875 146.1750030517578 12.80064392089844 147.9056396484375 15.65841674804688 149.1143798828125 C 18.61662292480469 150.3655853271484 21.75958251953125 151 25 151 L 127 151 C 130.2404174804688 151 133.3833770751953 150.3655853271484 136.3415832519531 149.1143798828125 C 139.1993560791016 147.9056396484375 141.76611328125 146.1750030517578 143.9705657958984 143.9705657958984 C 146.1750030517578 141.76611328125 147.9056396484375 139.1993560791016 149.1143798828125 136.3415832519531 C 150.3655853271484 133.3833770751953 151 130.2404174804688 151 127 L 151 25 C 151 21.75958251953125 150.3655853271484 18.61662292480469 149.1143798828125 15.65841674804688 C 147.9056396484375 12.80064392089844 146.1750030517578 10.23388671875 143.9705657958984 8.029434204101563 C 141.76611328125 5.824996948242188 139.1993560791016 4.0943603515625 136.3415832519531 2.8856201171875 C 133.3833770751953 1.634414672851563 130.2404174804688 1 127 1 L 25 1 M 25 0 L 127 0 C 140.8071136474609 0 152 11.19288635253906 152 25 L 152 127 C 152 140.8071136474609 140.8071136474609 152 127 152 L 25 152 C 11.19288635253906 152 0 140.8071136474609 0 127 L 0 25 C 0 11.19288635253906 11.19288635253906 0 25 0 Z" stroke="none" fill="#707070"/>
  </g>
  <g id="Rectangle_7" data-name="Rectangle 7" transform="translate(305 304)" fill="#6e00ff" stroke="#707070" stroke-width="1">
    <rect width="152" height="153" rx="25" stroke="none"/>
    <rect x="0.5" y="0.5" width="151" height="152" rx="24.5" fill="none"/>
  </g>
</svg>
