<svg xmlns="http://www.w3.org/2000/svg" width="609" height="609" viewBox="0 0 609 609">
  <g id="hero-blocks" transform="translate(-1055.8 -271.077)">
    <g id="Rectangle_4" data-name="Rectangle 4" transform="translate(1207.8 423.077)" fill="#fff" stroke="#707070" stroke-width="1">
      <rect width="153" height="152" rx="25" stroke="none"/>
      <rect x="0.5" y="0.5" width="152" height="151" rx="24.5" fill="none"/>
    </g>
    <g id="Rectangle_11" data-name="Rectangle 11" transform="translate(1207.8 575.077)" fill="#07deff" stroke="#707070" stroke-width="1">
      <rect width="153" height="153" rx="76.5" stroke="none"/>
      <rect x="0.5" y="0.5" width="152" height="152" rx="76" fill="none"/>
    </g>
    <g id="Rectangle_8" data-name="Rectangle 8" transform="translate(1207.8 728.077)" fill="#fff" stroke="#707070" stroke-width="1">
      <rect width="153" height="152" rx="25" stroke="none"/>
      <rect x="0.5" y="0.5" width="152" height="151" rx="24.5" fill="none"/>
    </g>
    <g id="Rectangle_9" data-name="Rectangle 9" transform="translate(1055.8 575.077)" fill="#fff" stroke="#707070" stroke-width="1" opacity="0.25">
      <rect width="152" height="153" rx="25" stroke="none"/>
      <rect x="0.5" y="0.5" width="151" height="152" rx="24.5" fill="none"/>
    </g>
    <g id="Rectangle_5" data-name="Rectangle 5" transform="translate(1360.8 271.077)" fill="#6e00ff" stroke="#707070" stroke-width="1">
      <rect width="152" height="152" rx="25" stroke="none"/>
      <rect x="0.5" y="0.5" width="151" height="151" rx="24.5" fill="none"/>
    </g>
    <g id="Rectangle_6" data-name="Rectangle 6" transform="translate(1360.8 423.077)" fill="#ff64cb" stroke="#707070" stroke-width="1">
      <rect width="152" height="152" rx="76" stroke="none"/>
      <rect x="0.5" y="0.5" width="151" height="151" rx="75.5" fill="none"/>
    </g>
    <g id="Rectangle_10" data-name="Rectangle 10" transform="translate(1512.8 423.077)" fill="#6e00ff" stroke="#707070" stroke-width="1" opacity="0.3">
      <rect width="152" height="152" rx="25" stroke="none"/>
      <rect x="0.5" y="0.5" width="151" height="151" rx="24.5" fill="none"/>
    </g>
    <g id="Rectangle_7" data-name="Rectangle 7" transform="translate(1360.8 575.077)" fill="#6e00ff" stroke="#707070" stroke-width="1">
      <rect width="152" height="153" rx="25" stroke="none"/>
      <rect x="0.5" y="0.5" width="151" height="152" rx="24.5" fill="none"/>
    </g>
  </g>
</svg>
